<?xml version="1.0" encoding="UTF-8"?>
<!DOCTYPE svg PUBLIC "-//W3C//DTD SVG 1.1//EN" "http://www.w3.org/Graphics/SVG/1.1/DTD/svg11.dtd">
<!-- Creator: CorelDRAW X7 -->
<svg xmlns="http://www.w3.org/2000/svg" xml:space="preserve" width="4.69402in" height="1.74201in" version="1.1" style="shape-rendering:geometricPrecision; text-rendering:geometricPrecision; image-rendering:optimizeQuality; fill-rule:evenodd; clip-rule:evenodd"
viewBox="0 0 4694 1742"
 xmlns:xlink="http://www.w3.org/1999/xlink">
 <defs>
  <style type="text/css">
   <![CDATA[
    .fil1 {fill:#167C49}
    .fil2 {fill:#2C305D}
    .fil0 {fill:#ED3237}
    .fil3 {fill:#FEFEFE}
   ]]>
  </style>
 </defs>
 <g id="Layer_x0020_1">
  <metadata id="CorelCorpID_0Corel-Layer"/>
  <g id="_1305308640">
   <g id="_1161973296">
    <path class="fil0" d="M782 0c-16,210 -99,366 -323,594 -225,228 -289,290 -401,499 18,-283 107,-451 316,-663 210,-212 308,-317 408,-430l0 0z"/>
    <path class="fil1" d="M757 317c-15,210 -99,366 -323,594 -224,228 -288,290 -400,498 18,-283 107,-450 316,-662 209,-213 307,-317 407,-430l0 0z"/>
    <path class="fil2" d="M723 649c-15,210 -98,366 -323,594 -224,228 -288,290 -400,499 18,-283 107,-451 316,-663 209,-212 308,-316 407,-430l0 0z"/>
   </g>
   <path class="fil3" d="M1446 364c80,0 142,17 187,50 44,34 67,83 67,149 0,68 -22,119 -66,154 -43,35 -102,52 -175,52l-65 0 0 203 -144 0 0 -608 196 0zm1 302c34,0 60,-8 78,-24 17,-16 26,-43 26,-79 0,-64 -35,-96 -107,-96l-50 0 0 199 53 0zm706 64c0,19 -1,36 -3,50l-288 0c4,39 16,67 33,82 18,16 42,24 73,24 19,0 37,-3 54,-10 18,-7 37,-17 57,-31l57 77c-54,43 -115,65 -181,65 -76,0 -134,-22 -174,-67 -40,-44 -60,-104 -60,-179 0,-47 8,-89 25,-127 17,-38 42,-68 75,-90 32,-22 71,-33 117,-33 67,0 120,22 158,64 38,42 57,100 57,175zm-136 -39c-1,-72 -26,-107 -75,-107 -24,0 -43,8 -56,26 -13,17 -21,46 -24,87l155 0 0 -6zm506 259c-17,12 -37,21 -59,27 -23,7 -45,10 -67,10 -102,-1 -153,-57 -153,-168l0 -216 -66 0 0 -97 66 0 0 -100 139 -16 0 116 107 0 -15 97 -92 0 0 214c0,21 3,37 10,46 7,10 18,14 33,14 16,0 33,-5 50,-15l47 88zm299 -457c17,0 32,2 46,6l-22 135c-17,-5 -31,-7 -42,-7 -27,0 -48,10 -62,29 -15,19 -26,47 -34,85l0 231 -139 0 0 -466 121 0 12 91c10,-32 26,-58 47,-76 22,-19 46,-28 73,-28zm274 -2c72,0 127,22 168,66 40,43 60,104 60,183 0,49 -9,93 -27,130 -19,37 -45,66 -79,86 -34,21 -75,31 -122,31 -70,0 -126,-22 -167,-65 -40,-44 -61,-105 -61,-183 0,-50 10,-93 28,-130 18,-38 45,-66 79,-87 34,-20 75,-31 121,-31zm0 102c-28,0 -49,12 -63,36 -14,23 -21,60 -21,110 0,51 7,88 21,111 13,23 35,35 63,35 28,0 49,-12 63,-35 14,-24 21,-61 21,-110 0,-51 -6,-88 -20,-112 -14,-23 -35,-35 -64,-35zm739 -59c-30,12 -75,18 -134,18 31,13 53,29 67,47 14,19 21,43 21,73 0,30 -8,57 -24,80 -16,24 -38,43 -68,56 -29,13 -64,20 -104,20 -18,0 -36,-2 -53,-5 -5,2 -8,6 -11,11 -3,5 -4,10 -4,15 0,9 3,16 10,21 7,5 20,7 41,7l70 0c36,0 67,6 94,18 27,12 47,28 62,48 15,21 22,44 22,69 0,49 -21,87 -63,114 -41,27 -102,41 -181,41 -56,0 -101,-6 -134,-18 -33,-12 -56,-29 -69,-51 -13,-21 -19,-49 -19,-81l124 0c0,14 3,25 8,33 6,8 16,14 31,18 14,5 35,7 63,7 38,0 64,-5 79,-14 14,-9 22,-22 22,-39 0,-14 -6,-25 -17,-33 -11,-9 -28,-13 -50,-13l-68 0c-47,0 -83,-8 -107,-25 -24,-18 -35,-40 -35,-67 0,-17 5,-33 14,-49 10,-16 24,-30 41,-40 -29,-16 -51,-34 -64,-56 -13,-21 -20,-47 -20,-77 0,-52 19,-94 57,-124 37,-31 86,-47 148,-47 47,2 86,-3 119,-14 32,-10 65,-26 100,-46l32 103zm-248 49c-21,0 -38,7 -51,20 -13,14 -19,33 -19,57 0,25 6,44 19,58 13,14 30,21 51,21 23,0 40,-7 52,-20 12,-14 18,-34 18,-61 0,-50 -23,-75 -70,-75zm653 254c0,17 2,30 7,39 5,8 13,14 24,18l-29 90c-28,-2 -52,-8 -70,-19 -18,-10 -32,-26 -42,-48 -30,47 -77,70 -140,70 -46,0 -83,-14 -111,-40 -27,-27 -41,-62 -41,-106 0,-51 19,-89 56,-116 38,-27 92,-41 162,-41l48 0 0 -20c0,-27 -6,-46 -18,-56 -12,-11 -32,-16 -61,-16 -15,0 -34,3 -55,7 -22,4 -44,10 -67,18l-32 -91c30,-11 60,-20 90,-26 31,-6 59,-9 86,-9 66,0 115,14 146,42 31,27 47,68 47,123l0 181zm-210 51c32,0 56,-15 74,-45l0 -82 -34 0c-32,0 -56,5 -71,16 -16,11 -23,29 -23,52 0,19 5,33 14,43 10,11 23,16 40,16zm475 -397c34,0 65,5 94,15 29,10 55,24 77,42l-51 79c-38,-24 -76,-36 -114,-36 -19,0 -32,3 -42,9 -10,6 -15,15 -15,26 0,8 3,16 7,21 4,6 13,11 27,17 13,6 34,13 62,21 49,14 85,33 108,55 24,23 36,54 36,93 0,32 -9,59 -27,82 -18,24 -43,41 -75,53 -31,13 -67,19 -105,19 -39,0 -76,-6 -109,-19 -34,-12 -62,-29 -86,-50l68 -76c39,31 80,46 123,46 21,0 38,-4 50,-12 12,-7 18,-18 18,-32 0,-11 -2,-20 -7,-26 -5,-7 -14,-13 -27,-18 -14,-6 -35,-13 -64,-21 -46,-13 -81,-32 -104,-56 -23,-24 -34,-54 -34,-89 0,-27 8,-51 23,-73 16,-21 38,-38 67,-51 29,-12 62,-19 100,-19z"/>
   <path class="fil3" d="M1343 1442c0,19 -4,35 -11,48 -7,12 -16,22 -27,29 -11,7 -25,13 -40,19l-16 -41c11,-4 18,-8 23,-13 5,-6 9,-11 11,-18 1,-7 2,-15 2,-26l0 -202 58 0 0 204zm190 -17c0,7 1,12 3,15 2,4 5,6 9,8l-11 36c-12,-1 -21,-4 -28,-8 -7,-4 -13,-10 -17,-19 -12,18 -31,28 -56,28 -18,0 -33,-6 -44,-16 -11,-11 -16,-25 -16,-42 0,-20 7,-36 22,-46 15,-11 37,-16 65,-16l19 0 0 -8c0,-11 -3,-19 -7,-23 -5,-4 -13,-6 -25,-6 -6,0 -13,1 -22,3 -8,1 -17,4 -26,7l-13 -36c12,-5 24,-8 36,-11 12,-2 24,-3 34,-3 27,0 46,5 58,16 13,11 19,28 19,49l0 72zm-84 20c13,0 23,-6 30,-17l0 -33 -14 0c-13,0 -22,2 -28,6 -6,5 -9,12 -9,21 0,7 2,13 5,17 4,4 10,6 16,6zm244 25c-7,5 -15,8 -24,11 -8,2 -17,4 -26,4 -41,-1 -61,-23 -61,-67l0 -86 -26 0 0 -38 26 0 0 -40 55 -6 0 46 43 0 -6 38 -37 0 0 85c0,9 2,15 4,19 3,3 8,5 14,5 6,0 13,-2 20,-6l18 35zm74 -176l0 185 -55 0 0 -185 55 0zm-28 -98c9,0 17,3 23,9 7,6 10,14 10,23 0,9 -3,16 -10,22 -6,6 -14,9 -23,9 -10,0 -18,-3 -24,-9 -6,-6 -9,-13 -9,-22 0,-9 3,-17 9,-23 6,-6 14,-9 24,-9zm276 92c15,0 26,5 35,15 9,10 13,23 13,41l0 135 -55 0 0 -126c0,-16 -5,-25 -15,-25 -6,0 -11,2 -16,6 -4,4 -9,10 -13,18l0 127 -55 0 0 -126c0,-16 -5,-25 -16,-25 -5,0 -10,2 -15,6 -4,5 -9,11 -13,18l0 127 -55 0 0 -185 48 0 4 21c7,-9 15,-16 24,-20 9,-5 19,-7 30,-7 10,0 19,3 27,8 7,5 13,12 16,21 8,-10 16,-17 25,-22 9,-5 19,-7 31,-7zm359 111c0,16 -3,31 -10,44 -8,13 -18,23 -32,31 -15,7 -32,11 -52,11 -31,0 -55,-8 -71,-24 -16,-15 -24,-36 -24,-62l0 -161 58 0 0 158c0,16 3,27 8,35 6,7 16,11 29,11 13,0 22,-4 28,-11 6,-8 9,-19 9,-35l0 -158 57 0 0 161zm157 71c-6,5 -14,8 -23,11 -9,2 -18,4 -27,4 -40,-1 -61,-23 -61,-67l0 -86 -26 0 0 -38 26 0 0 -40 55 -6 0 46 43 0 -6 38 -37 0 0 85c0,9 2,15 5,19 2,3 7,5 13,5 6,0 13,-2 20,-6l18 35zm162 -45c0,7 1,12 3,15 2,4 5,6 9,8l-11 36c-11,-1 -21,-4 -28,-8 -7,-4 -13,-10 -17,-19 -12,18 -30,28 -56,28 -18,0 -33,-6 -44,-16 -10,-11 -16,-25 -16,-42 0,-20 7,-36 22,-46 15,-11 37,-16 65,-16l19 0 0 -8c0,-11 -3,-19 -7,-23 -5,-4 -13,-6 -25,-6 -6,0 -13,1 -22,3 -8,1 -17,4 -26,7l-13 -36c12,-5 24,-8 36,-11 12,-2 24,-3 34,-3 27,0 46,5 58,16 13,11 19,28 19,49l0 72zm-84 20c13,0 23,-6 30,-17l0 -33 -14 0c-12,0 -22,2 -28,6 -6,5 -9,12 -9,21 0,7 2,13 6,17 3,4 9,6 15,6zm333 -157c15,0 26,5 35,15 9,10 13,23 13,41l0 135 -55 0 0 -126c0,-16 -5,-25 -15,-25 -6,0 -11,2 -16,6 -4,4 -9,10 -13,18l0 127 -55 0 0 -126c0,-16 -5,-25 -16,-25 -5,0 -10,2 -15,6 -4,5 -9,11 -13,18l0 127 -55 0 0 -185 48 0 4 21c7,-9 15,-16 24,-20 9,-5 19,-7 30,-7 10,0 19,3 27,8 7,5 13,12 16,21 8,-10 16,-17 25,-22 9,-5 19,-7 31,-7zm237 137c0,7 1,12 3,15 2,4 5,6 10,8l-12 36c-11,-1 -20,-4 -28,-8 -7,-4 -12,-10 -16,-19 -12,18 -31,28 -56,28 -19,0 -33,-6 -44,-16 -11,-11 -17,-25 -17,-42 0,-20 8,-36 23,-46 15,-11 36,-16 64,-16l19 0 0 -8c0,-11 -2,-19 -7,-23 -4,-4 -13,-6 -24,-6 -6,0 -14,1 -22,3 -9,1 -18,4 -27,7l-12 -36c11,-5 23,-8 35,-11 13,-2 24,-3 34,-3 27,0 46,5 59,16 12,11 18,28 18,49l0 72zm-83 20c12,0 22,-6 29,-17l0 -33 -13 0c-13,0 -22,2 -29,6 -6,5 -9,12 -9,21 0,7 2,13 6,17 4,4 9,6 16,6zm310 -213c15,0 28,2 40,6 12,5 23,11 34,20l-28 32c-7,-5 -14,-9 -21,-12 -7,-3 -14,-4 -22,-4 -17,0 -30,7 -39,20 -9,14 -14,35 -14,64 0,28 5,49 14,62 9,14 23,20 39,20 9,0 17,-1 24,-5 8,-3 15,-8 24,-14l25 33c-9,9 -20,16 -33,22 -13,6 -27,9 -42,9 -23,0 -42,-5 -59,-15 -16,-10 -29,-24 -38,-43 -10,-19 -14,-42 -14,-69 0,-27 5,-49 14,-68 9,-19 22,-34 39,-44 17,-9 36,-14 57,-14zm255 151c0,7 0,14 -1,20l-115 0c2,15 7,26 14,32 7,6 16,10 29,10 7,0 14,-2 21,-4 7,-3 15,-7 23,-13l23 31c-22,17 -46,26 -73,26 -30,0 -53,-9 -69,-27 -16,-17 -24,-41 -24,-71 0,-19 4,-35 10,-50 7,-15 17,-27 30,-36 13,-9 29,-13 47,-13 27,0 48,8 63,25 15,17 22,40 22,70zm-54 -16c0,-28 -10,-42 -30,-42 -9,0 -17,3 -22,10 -5,7 -8,18 -10,34l62 0 0 -2zm194 -79c16,0 29,5 38,15 9,9 13,23 13,41l0 135 -55 0 0 -126c0,-9 -1,-16 -4,-19 -3,-4 -7,-6 -13,-6 -11,0 -22,8 -32,24l0 127 -56 0 0 -185 49 0 3 22c8,-9 17,-16 26,-21 9,-5 20,-7 31,-7zm259 -68l0 259 -49 0 -3 -22c-13,18 -30,28 -52,28 -23,0 -41,-9 -53,-27 -12,-17 -18,-42 -18,-72 0,-19 3,-36 10,-51 6,-15 15,-26 26,-34 12,-9 25,-13 40,-13 18,0 32,6 44,17l0 -90 55 5zm-87 224c13,0 23,-7 32,-21l0 -79c-4,-6 -9,-10 -13,-12 -5,-3 -10,-4 -16,-4 -10,0 -18,5 -24,14 -7,10 -10,24 -10,44 0,22 3,37 8,45 6,9 13,13 23,13zm278 -19c0,7 1,12 3,15 2,4 5,6 9,8l-11 36c-12,-1 -21,-4 -28,-8 -7,-4 -13,-10 -17,-19 -12,18 -31,28 -56,28 -18,0 -33,-6 -44,-16 -11,-11 -16,-25 -16,-42 0,-20 7,-36 22,-46 15,-11 37,-16 65,-16l19 0 0 -8c0,-11 -3,-19 -7,-23 -5,-4 -13,-6 -25,-6 -6,0 -13,1 -22,3 -8,1 -17,4 -26,7l-13 -36c12,-5 24,-8 36,-11 12,-2 23,-3 34,-3 26,0 46,5 58,16 13,11 19,28 19,49l0 72zm-84 20c13,0 23,-6 30,-17l0 -33 -14 0c-13,0 -22,2 -28,6 -6,5 -9,12 -9,21 0,7 2,13 5,17 4,4 10,6 16,6zm236 -157c16,0 29,5 38,15 9,9 14,23 14,41l0 135 -56 0 0 -126c0,-9 -1,-16 -4,-19 -3,-4 -7,-6 -13,-6 -11,0 -22,8 -32,24l0 127 -55 0 0 -185 48 0 4 22c8,-9 16,-16 25,-21 10,-5 20,-7 31,-7zm240 137c0,7 1,12 3,15 2,4 6,6 10,8l-11 36c-12,-1 -21,-4 -28,-8 -8,-4 -13,-10 -17,-19 -12,18 -31,28 -56,28 -18,0 -33,-6 -44,-16 -11,-11 -16,-25 -16,-42 0,-20 7,-36 22,-46 15,-11 36,-16 65,-16l18 0 0 -8c0,-11 -2,-19 -7,-23 -4,-4 -12,-6 -24,-6 -6,0 -13,1 -22,3 -9,1 -17,4 -27,7l-12 -36c11,-5 23,-8 36,-11 12,-2 23,-3 34,-3 26,0 46,5 58,16 12,11 18,28 18,49l0 72zm-83 20c13,0 22,-6 29,-17l0 -33 -13 0c-13,0 -22,2 -28,6 -7,5 -10,12 -10,21 0,7 2,13 6,17 4,4 9,6 16,6z"/>
  </g>
 </g>
</svg>
